# xmcd CD database file
#
# Track frame offsets:
#	150
#	19082
#	38540
#
# Disc length: 764 seconds
#
# Revision: 0
# Processed by: cddbd v1.5.1PL0 Copyright (c) Steve Scherf et al.
# Submitted via: CDex 1.51
#
DISCID=1602fa03
DTITLE=田中傑幸 - Lonely Dancin'
DYEAR=1992
DGENRE=JPop
TTITLE0=Lonely Dancin'
TTITLE1=CHANGE
TTITLE2=Lonely Dancin'(TV Style Songless Version)
EXTD=YEAR: 1992
EXTT0=
EXTT1=
EXTT2=
PLAYORDER=
